<svg width="375" height="812" viewBox="0 0 375 812" fill="none" xmlns="http://www.w3.org/2000/svg">
<rect width="375" height="812" fill="#7950FF"/>
<path d="M88.7914 337L83.5914 323H85.7314L89.9914 334.92L94.2714 323H96.3914L91.1914 337H88.7914ZM98.2852 337V327.02H100.285V337H98.2852ZM99.2852 325.08C98.9118 325.08 98.5985 324.96 98.3452 324.72C98.0918 324.48 97.9652 324.173 97.9652 323.8C97.9652 323.44 98.0918 323.147 98.3452 322.92C98.5985 322.68 98.9118 322.56 99.2852 322.56C99.6585 322.56 99.9718 322.68 100.225 322.92C100.478 323.147 100.605 323.44 100.605 323.8C100.605 324.173 100.478 324.48 100.225 324.72C99.9718 324.96 99.6585 325.08 99.2852 325.08ZM107.045 337.24C106.218 337.24 105.478 337.1 104.825 336.82C104.185 336.54 103.672 336.147 103.285 335.64C102.912 335.133 102.685 334.547 102.605 333.88H104.625C104.705 334.187 104.845 334.473 105.045 334.74C105.245 335.007 105.512 335.22 105.845 335.38C106.178 335.54 106.578 335.62 107.045 335.62C107.485 335.62 107.845 335.56 108.125 335.44C108.405 335.307 108.612 335.133 108.745 334.92C108.878 334.707 108.945 334.473 108.945 334.22C108.945 333.86 108.852 333.587 108.665 333.4C108.492 333.213 108.225 333.067 107.865 332.96C107.518 332.84 107.098 332.727 106.605 332.62C106.178 332.54 105.752 332.433 105.325 332.3C104.898 332.167 104.512 331.993 104.165 331.78C103.818 331.567 103.538 331.3 103.325 330.98C103.112 330.66 103.005 330.267 103.005 329.8C103.005 329.213 103.158 328.693 103.465 328.24C103.772 327.787 104.205 327.433 104.765 327.18C105.325 326.913 105.992 326.78 106.765 326.78C107.872 326.78 108.765 327.047 109.445 327.58C110.138 328.1 110.538 328.853 110.645 329.84H108.725C108.658 329.387 108.452 329.033 108.105 328.78C107.772 328.527 107.325 328.4 106.765 328.4C106.192 328.4 105.752 328.513 105.445 328.74C105.152 328.967 105.005 329.267 105.005 329.64C105.005 329.88 105.092 330.093 105.265 330.28C105.452 330.453 105.712 330.607 106.045 330.74C106.392 330.86 106.798 330.967 107.265 331.06C107.945 331.207 108.558 331.38 109.105 331.58C109.665 331.767 110.118 332.053 110.465 332.44C110.812 332.813 110.985 333.36 110.985 334.08C110.998 334.707 110.838 335.26 110.505 335.74C110.185 336.207 109.732 336.573 109.145 336.84C108.558 337.107 107.858 337.24 107.045 337.24ZM116.68 337.24C115.854 337.24 115.167 337.1 114.62 336.82C114.074 336.54 113.667 336.167 113.4 335.7C113.134 335.233 113 334.727 113 334.18C113 333.527 113.167 332.967 113.5 332.5C113.847 332.033 114.34 331.673 114.98 331.42C115.62 331.167 116.394 331.04 117.3 331.04H119.92C119.92 330.453 119.827 329.973 119.64 329.6C119.467 329.213 119.207 328.927 118.86 328.74C118.527 328.54 118.107 328.44 117.6 328.44C117 328.44 116.48 328.587 116.04 328.88C115.6 329.173 115.327 329.607 115.22 330.18H113.22C113.3 329.46 113.54 328.847 113.94 328.34C114.354 327.833 114.88 327.447 115.52 327.18C116.174 326.913 116.867 326.78 117.6 326.78C118.534 326.78 119.32 326.947 119.96 327.28C120.6 327.613 121.087 328.087 121.42 328.7C121.754 329.3 121.92 330.013 121.92 330.84V337H120.18L120.02 335.3C119.887 335.567 119.714 335.82 119.5 336.06C119.3 336.3 119.06 336.507 118.78 336.68C118.514 336.853 118.2 336.987 117.84 337.08C117.494 337.187 117.107 337.24 116.68 337.24ZM117.06 335.62C117.487 335.62 117.874 335.533 118.22 335.36C118.567 335.187 118.86 334.953 119.1 334.66C119.354 334.353 119.54 334.013 119.66 333.64C119.794 333.267 119.867 332.88 119.88 332.48V332.44H117.5C116.927 332.44 116.46 332.513 116.1 332.66C115.74 332.793 115.48 332.98 115.32 333.22C115.174 333.46 115.1 333.74 115.1 334.06C115.1 334.38 115.174 334.66 115.32 334.9C115.48 335.127 115.707 335.307 116 335.44C116.294 335.56 116.647 335.62 117.06 335.62ZM133.471 337.24C132.644 337.24 131.904 337.1 131.251 336.82C130.611 336.54 130.098 336.147 129.711 335.64C129.338 335.133 129.111 334.547 129.031 333.88H131.051C131.131 334.187 131.271 334.473 131.471 334.74C131.671 335.007 131.938 335.22 132.271 335.38C132.604 335.54 133.004 335.62 133.471 335.62C133.911 335.62 134.271 335.56 134.551 335.44C134.831 335.307 135.038 335.133 135.171 334.92C135.304 334.707 135.371 334.473 135.371 334.22C135.371 333.86 135.278 333.587 135.091 333.4C134.918 333.213 134.651 333.067 134.291 332.96C133.944 332.84 133.524 332.727 133.031 332.62C132.604 332.54 132.178 332.433 131.751 332.3C131.324 332.167 130.938 331.993 130.591 331.78C130.244 331.567 129.964 331.3 129.751 330.98C129.538 330.66 129.431 330.267 129.431 329.8C129.431 329.213 129.584 328.693 129.891 328.24C130.198 327.787 130.631 327.433 131.191 327.18C131.751 326.913 132.418 326.78 133.191 326.78C134.298 326.78 135.191 327.047 135.871 327.58C136.564 328.1 136.964 328.853 137.071 329.84H135.151C135.084 329.387 134.878 329.033 134.531 328.78C134.198 328.527 133.751 328.4 133.191 328.4C132.618 328.4 132.178 328.513 131.871 328.74C131.578 328.967 131.431 329.267 131.431 329.64C131.431 329.88 131.518 330.093 131.691 330.28C131.878 330.453 132.138 330.607 132.471 330.74C132.818 330.86 133.224 330.967 133.691 331.06C134.371 331.207 134.984 331.38 135.531 331.58C136.091 331.767 136.544 332.053 136.891 332.44C137.238 332.813 137.411 333.36 137.411 334.08C137.424 334.707 137.264 335.26 136.931 335.74C136.611 336.207 136.158 336.573 135.571 336.84C134.984 337.107 134.284 337.24 133.471 337.24ZM144.346 337.24C143.373 337.24 142.513 337.027 141.766 336.6C141.02 336.16 140.433 335.553 140.006 334.78C139.593 333.993 139.386 333.08 139.386 332.04C139.386 330.987 139.593 330.067 140.006 329.28C140.42 328.493 141 327.88 141.746 327.44C142.506 327 143.38 326.78 144.366 326.78C145.353 326.78 146.2 327 146.906 327.44C147.626 327.867 148.173 328.44 148.546 329.16C148.933 329.88 149.126 330.673 149.126 331.54C149.126 331.673 149.126 331.82 149.126 331.98C149.126 332.127 149.12 332.293 149.106 332.48H140.846V331.06H147.146C147.106 330.247 146.826 329.607 146.306 329.14C145.786 328.673 145.133 328.44 144.346 328.44C143.813 328.44 143.313 328.56 142.846 328.8C142.393 329.04 142.026 329.393 141.746 329.86C141.48 330.327 141.346 330.913 141.346 331.62V332.2C141.346 332.933 141.48 333.553 141.746 334.06C142.026 334.553 142.393 334.933 142.846 335.2C143.3 335.453 143.793 335.58 144.326 335.58C144.966 335.58 145.493 335.44 145.906 335.16C146.333 334.867 146.646 334.48 146.846 334H148.846C148.673 334.613 148.38 335.167 147.966 335.66C147.553 336.14 147.04 336.527 146.426 336.82C145.826 337.1 145.133 337.24 144.346 337.24ZM151.348 337V327.02H153.148L153.328 328.92C153.542 328.467 153.822 328.087 154.168 327.78C154.528 327.46 154.948 327.213 155.428 327.04C155.908 326.867 156.455 326.78 157.068 326.78V328.88H156.448C156.022 328.88 155.615 328.933 155.228 329.04C154.855 329.147 154.528 329.32 154.248 329.56C153.968 329.8 153.748 330.127 153.588 330.54C153.428 330.953 153.348 331.473 153.348 332.1V337H151.348ZM161.727 337L157.967 327.02H160.067L162.907 335.08L165.767 327.02H167.827L164.087 337H161.727ZM169.75 337V327.02H171.75V337H169.75ZM170.75 325.08C170.377 325.08 170.063 324.96 169.81 324.72C169.557 324.48 169.43 324.173 169.43 323.8C169.43 323.44 169.557 323.147 169.81 322.92C170.063 322.68 170.377 322.56 170.75 322.56C171.123 322.56 171.437 322.68 171.69 322.92C171.943 323.147 172.07 323.44 172.07 323.8C172.07 324.173 171.943 324.48 171.69 324.72C171.437 324.96 171.123 325.08 170.75 325.08ZM179.27 337.24C178.297 337.24 177.43 337.02 176.67 336.58C175.91 336.14 175.31 335.527 174.87 334.74C174.443 333.953 174.23 333.047 174.23 332.02C174.23 330.98 174.443 330.067 174.87 329.28C175.31 328.493 175.91 327.88 176.67 327.44C177.43 327 178.297 326.78 179.27 326.78C180.497 326.78 181.517 327.1 182.33 327.74C183.157 328.367 183.683 329.22 183.91 330.3H181.83C181.697 329.727 181.39 329.287 180.91 328.98C180.443 328.66 179.89 328.5 179.25 328.5C178.717 328.5 178.223 328.633 177.77 328.9C177.317 329.167 176.95 329.56 176.67 330.08C176.403 330.6 176.27 331.24 176.27 332C176.27 332.573 176.35 333.08 176.51 333.52C176.67 333.96 176.883 334.333 177.15 334.64C177.43 334.933 177.75 335.16 178.11 335.32C178.47 335.467 178.85 335.54 179.25 335.54C179.69 335.54 180.083 335.473 180.43 335.34C180.777 335.193 181.07 334.987 181.31 334.72C181.563 334.44 181.737 334.107 181.83 333.72H183.91C183.683 334.773 183.157 335.627 182.33 336.28C181.503 336.92 180.483 337.24 179.27 337.24ZM190.831 337.24C189.857 337.24 188.997 337.027 188.251 336.6C187.504 336.16 186.917 335.553 186.491 334.78C186.077 333.993 185.871 333.08 185.871 332.04C185.871 330.987 186.077 330.067 186.491 329.28C186.904 328.493 187.484 327.88 188.231 327.44C188.991 327 189.864 326.78 190.851 326.78C191.837 326.78 192.684 327 193.391 327.44C194.111 327.867 194.657 328.44 195.031 329.16C195.417 329.88 195.611 330.673 195.611 331.54C195.611 331.673 195.611 331.82 195.611 331.98C195.611 332.127 195.604 332.293 195.591 332.48H187.331V331.06H193.631C193.591 330.247 193.311 329.607 192.791 329.14C192.271 328.673 191.617 328.44 190.831 328.44C190.297 328.44 189.797 328.56 189.331 328.8C188.877 329.04 188.511 329.393 188.231 329.86C187.964 330.327 187.831 330.913 187.831 331.62V332.2C187.831 332.933 187.964 333.553 188.231 334.06C188.511 334.553 188.877 334.933 189.331 335.2C189.784 335.453 190.277 335.58 190.811 335.58C191.451 335.58 191.977 335.44 192.391 335.16C192.817 334.867 193.131 334.48 193.331 334H195.331C195.157 334.613 194.864 335.167 194.451 335.66C194.037 336.14 193.524 336.527 192.911 336.82C192.311 337.1 191.617 337.24 190.831 337.24ZM202.95 341.4V327.02H204.75L204.95 328.58C205.163 328.273 205.43 327.98 205.75 327.7C206.07 327.42 206.45 327.2 206.89 327.04C207.343 326.867 207.87 326.78 208.47 326.78C209.43 326.78 210.27 327.013 210.99 327.48C211.723 327.933 212.297 328.553 212.71 329.34C213.123 330.127 213.33 331.027 213.33 332.04C213.33 333.04 213.123 333.933 212.71 334.72C212.297 335.507 211.723 336.127 210.99 336.58C210.257 337.02 209.41 337.24 208.45 337.24C207.663 337.24 206.97 337.087 206.37 336.78C205.77 336.46 205.297 336.02 204.95 335.46V341.4H202.95ZM208.13 335.5C208.757 335.5 209.31 335.353 209.79 335.06C210.27 334.767 210.643 334.36 210.91 333.84C211.177 333.32 211.31 332.713 211.31 332.02C211.31 331.327 211.177 330.72 210.91 330.2C210.643 329.667 210.27 329.253 209.79 328.96C209.31 328.667 208.757 328.52 208.13 328.52C207.503 328.52 206.95 328.667 206.47 328.96C205.99 329.253 205.617 329.66 205.35 330.18C205.083 330.7 204.95 331.307 204.95 332C204.95 332.707 205.083 333.32 205.35 333.84C205.617 334.36 205.99 334.767 206.47 335.06C206.95 335.353 207.503 335.5 208.13 335.5ZM215.665 337V327.02H217.465L217.645 328.92C217.858 328.467 218.138 328.087 218.485 327.78C218.845 327.46 219.265 327.213 219.745 327.04C220.225 326.867 220.771 326.78 221.385 326.78V328.88H220.765C220.338 328.88 219.931 328.933 219.545 329.04C219.171 329.147 218.845 329.32 218.565 329.56C218.285 329.8 218.065 330.127 217.905 330.54C217.745 330.953 217.665 331.473 217.665 332.1V337H215.665ZM227.53 337.24C226.584 337.24 225.73 337.027 224.97 336.6C224.224 336.16 223.63 335.547 223.19 334.76C222.764 333.973 222.55 333.06 222.55 332.02C222.55 330.967 222.77 330.047 223.21 329.26C223.65 328.473 224.25 327.867 225.01 327.44C225.77 327 226.617 326.78 227.55 326.78C228.51 326.78 229.364 327 230.11 327.44C230.87 327.867 231.464 328.473 231.89 329.26C232.33 330.033 232.55 330.953 232.55 332.02C232.55 333.06 232.33 333.973 231.89 334.76C231.45 335.547 230.85 336.16 230.09 336.6C229.33 337.027 228.477 337.24 227.53 337.24ZM227.53 335.52C228.064 335.52 228.55 335.393 228.99 335.14C229.444 334.873 229.81 334.48 230.09 333.96C230.37 333.427 230.51 332.773 230.51 332C230.51 331.227 230.37 330.58 230.09 330.06C229.824 329.54 229.464 329.153 229.01 328.9C228.57 328.633 228.084 328.5 227.55 328.5C227.044 328.5 226.557 328.633 226.09 328.9C225.637 329.153 225.27 329.54 224.99 330.06C224.724 330.58 224.59 331.233 224.59 332.02C224.59 332.78 224.724 333.427 224.99 333.96C225.27 334.48 225.63 334.873 226.07 335.14C226.524 335.393 227.01 335.52 227.53 335.52ZM237.215 337L233.455 327.02H235.555L238.395 335.08L241.255 327.02H243.315L239.575 337H237.215ZM245.238 337V327.02H247.238V337H245.238ZM246.238 325.08C245.865 325.08 245.552 324.96 245.298 324.72C245.045 324.48 244.918 324.173 244.918 323.8C244.918 323.44 245.045 323.147 245.298 322.92C245.552 322.68 245.865 322.56 246.238 322.56C246.612 322.56 246.925 322.68 247.178 322.92C247.432 323.147 247.558 323.44 247.558 323.8C247.558 324.173 247.432 324.48 247.178 324.72C246.925 324.96 246.612 325.08 246.238 325.08ZM254.598 337.24C253.638 337.24 252.785 337.013 252.038 336.56C251.305 336.107 250.732 335.487 250.318 334.7C249.918 333.9 249.718 333 249.718 332C249.718 330.987 249.918 330.087 250.318 329.3C250.732 328.513 251.312 327.9 252.058 327.46C252.805 327.007 253.658 326.78 254.618 326.78C255.405 326.78 256.098 326.94 256.698 327.26C257.312 327.567 257.785 328 258.118 328.56V322.6H260.118V337H258.318L258.118 335.44C257.905 335.747 257.638 336.04 257.318 336.32C256.998 336.587 256.612 336.807 256.158 336.98C255.705 337.153 255.185 337.24 254.598 337.24ZM254.918 335.5C255.545 335.5 256.098 335.353 256.578 335.06C257.058 334.767 257.432 334.36 257.698 333.84C257.965 333.307 258.098 332.693 258.098 332C258.098 331.307 257.965 330.7 257.698 330.18C257.432 329.66 257.058 329.253 256.578 328.96C256.098 328.667 255.545 328.52 254.918 328.52C254.305 328.52 253.758 328.667 253.278 328.96C252.798 329.253 252.425 329.66 252.158 330.18C251.892 330.7 251.758 331.307 251.758 332C251.758 332.693 251.892 333.307 252.158 333.84C252.425 334.36 252.798 334.767 253.278 335.06C253.758 335.353 254.305 335.5 254.918 335.5ZM267.413 337.24C266.439 337.24 265.579 337.027 264.833 336.6C264.086 336.16 263.499 335.553 263.073 334.78C262.659 333.993 262.453 333.08 262.453 332.04C262.453 330.987 262.659 330.067 263.073 329.28C263.486 328.493 264.066 327.88 264.813 327.44C265.573 327 266.446 326.78 267.433 326.78C268.419 326.78 269.266 327 269.973 327.44C270.693 327.867 271.239 328.44 271.613 329.16C271.999 329.88 272.193 330.673 272.193 331.54C272.193 331.673 272.193 331.82 272.193 331.98C272.193 332.127 272.186 332.293 272.173 332.48H263.913V331.06H270.213C270.173 330.247 269.893 329.607 269.373 329.14C268.853 328.673 268.199 328.44 267.413 328.44C266.879 328.44 266.379 328.56 265.913 328.8C265.459 329.04 265.093 329.393 264.813 329.86C264.546 330.327 264.413 330.913 264.413 331.62V332.2C264.413 332.933 264.546 333.553 264.813 334.06C265.093 334.553 265.459 334.933 265.913 335.2C266.366 335.453 266.859 335.58 267.393 335.58C268.033 335.58 268.559 335.44 268.973 335.16C269.399 334.867 269.713 334.48 269.913 334H271.913C271.739 334.613 271.446 335.167 271.033 335.66C270.619 336.14 270.106 336.527 269.493 336.82C268.893 337.1 268.199 337.24 267.413 337.24ZM274.415 337V327.02H276.215L276.395 328.92C276.608 328.467 276.888 328.087 277.235 327.78C277.595 327.46 278.015 327.213 278.495 327.04C278.975 326.867 279.521 326.78 280.135 326.78V328.88H279.515C279.088 328.88 278.681 328.933 278.295 329.04C277.921 329.147 277.595 329.32 277.315 329.56C277.035 329.8 276.815 330.127 276.655 330.54C276.495 330.953 276.415 331.473 276.415 332.1V337H274.415ZM285.873 337.24C285.047 337.24 284.307 337.1 283.653 336.82C283.013 336.54 282.5 336.147 282.113 335.64C281.74 335.133 281.513 334.547 281.433 333.88H283.453C283.533 334.187 283.673 334.473 283.873 334.74C284.073 335.007 284.34 335.22 284.673 335.38C285.007 335.54 285.407 335.62 285.873 335.62C286.313 335.62 286.673 335.56 286.953 335.44C287.233 335.307 287.44 335.133 287.573 334.92C287.707 334.707 287.773 334.473 287.773 334.22C287.773 333.86 287.68 333.587 287.493 333.4C287.32 333.213 287.053 333.067 286.693 332.96C286.347 332.84 285.927 332.727 285.433 332.62C285.007 332.54 284.58 332.433 284.153 332.3C283.727 332.167 283.34 331.993 282.993 331.78C282.647 331.567 282.367 331.3 282.153 330.98C281.94 330.66 281.833 330.267 281.833 329.8C281.833 329.213 281.987 328.693 282.293 328.24C282.6 327.787 283.033 327.433 283.593 327.18C284.153 326.913 284.82 326.78 285.593 326.78C286.7 326.78 287.593 327.047 288.273 327.58C288.967 328.1 289.367 328.853 289.473 329.84H287.553C287.487 329.387 287.28 329.033 286.933 328.78C286.6 328.527 286.153 328.4 285.593 328.4C285.02 328.4 284.58 328.513 284.273 328.74C283.98 328.967 283.833 329.267 283.833 329.64C283.833 329.88 283.92 330.093 284.093 330.28C284.28 330.453 284.54 330.607 284.873 330.74C285.22 330.86 285.627 330.967 286.093 331.06C286.773 331.207 287.387 331.38 287.933 331.58C288.493 331.767 288.947 332.053 289.293 332.44C289.64 332.813 289.813 333.36 289.813 334.08C289.827 334.707 289.667 335.26 289.333 335.74C289.013 336.207 288.56 336.573 287.973 336.84C287.387 337.107 286.687 337.24 285.873 337.24Z" fill="white"/>
<g clip-path="url(#clip0_11063_74627)">
<mask id="mask0_11063_74627" style="mask-type:luminance" maskUnits="userSpaceOnUse" x="127" y="395" width="77" height="36">
<path d="M203.845 395.198H127.542V430.322H203.845V395.198Z" fill="white"/>
</mask>
<g mask="url(#mask0_11063_74627)">
<path d="M195.368 407.044L200.112 402.325H202.216C202.548 402.325 202.882 402.252 203.195 402.107L203.399 402C203.674 401.873 203.844 401.608 203.844 401.307C203.844 401.006 203.674 400.741 203.411 400.62L203.183 400.501C202.882 400.362 202.548 400.289 202.216 400.289H200.112L195.369 395.571C195.127 395.331 194.807 395.198 194.465 395.198H193.865C193.771 395.198 193.685 395.249 193.641 395.331C193.596 395.412 193.599 395.512 193.65 395.59L196.74 400.387C195.966 400.435 195.32 400.499 194.533 400.577L193.727 400.658L192.544 398.876C192.495 398.804 192.416 398.762 192.33 398.762H191.818C191.741 398.762 191.667 398.797 191.618 398.857C191.569 398.917 191.551 398.996 191.568 399.071L192.068 401.307L191.568 403.542C191.564 403.561 191.562 403.579 191.562 403.597C191.562 403.655 191.581 403.711 191.618 403.757C191.667 403.817 191.741 403.852 191.818 403.852H192.33C192.416 403.852 192.496 403.809 192.543 403.737L193.725 401.955L194.534 402.036C195.319 402.115 195.965 402.179 196.739 402.226L193.65 407.023C193.599 407.102 193.596 407.201 193.641 407.282C193.685 407.364 193.771 407.415 193.865 407.415H194.465C194.807 407.415 195.127 407.283 195.368 407.044Z" fill="white"/>
<path d="M132.836 423.064C134.947 423.064 136.655 422.137 137.66 420.831H137.761L138.029 422.687H141.747C141.58 421.656 141.512 420.178 141.512 418.666V412.619C141.512 408.977 140.005 405.575 134.779 405.575C132.2 405.575 130.089 406.297 128.883 407.053L129.687 409.801C130.793 409.08 132.468 408.565 134.076 408.565C136.957 408.565 137.392 410.386 137.392 411.485V411.76C131.362 411.726 127.711 413.856 127.711 418.082C127.711 420.625 129.553 423.064 132.836 423.064ZM134.143 420.041C132.836 420.041 131.798 419.285 131.798 417.636C131.798 415.093 134.578 414.44 137.493 414.509V416.811C137.493 417.086 137.459 417.429 137.359 417.739C136.99 418.941 135.784 420.041 134.143 420.041ZM151.194 423.03C152.5 423.03 153.572 422.858 154.175 422.618L154.108 419.388C153.74 419.491 153.204 419.594 152.5 419.594C150.926 419.594 150.39 418.529 150.39 416.502V409.114H154.309V405.953H150.39V401.177L146.37 402.173V405.953H144.025V409.114H146.37V416.983C146.37 419.182 146.772 420.694 147.643 421.656C148.413 422.515 149.686 423.03 151.194 423.03ZM161.578 422.687V398.291H157.425V422.687H161.578ZM166.302 430.28C167.34 430.143 169.015 429.593 170.623 428.115C172.566 426.397 174.074 423.614 176.318 417.361L180.405 405.953H175.983L173.437 414.887C173.136 415.986 172.834 417.223 172.566 418.185H172.466C172.231 417.223 171.896 415.952 171.561 414.921L168.613 405.953H164.091L170.054 421.312C170.255 421.724 170.288 421.965 170.288 422.137C170.288 422.343 170.188 422.583 170.02 422.893C169.451 424.027 168.546 425.023 167.776 425.538C166.938 426.157 166.067 426.535 165.364 426.707L166.302 430.28ZM186.334 423.03C190.656 423.03 192.967 420.831 192.967 417.807C192.934 415.333 191.56 413.787 188.612 412.688C186.535 411.932 185.765 411.416 185.765 410.351C185.765 409.32 186.569 408.599 188.043 408.599C189.483 408.599 190.79 409.149 191.493 409.561L192.297 406.572C191.359 406.056 189.785 405.575 187.976 405.575C184.19 405.575 181.812 407.877 181.812 410.832C181.778 412.791 183.118 414.577 186.301 415.711C188.311 416.433 188.981 417.017 188.981 418.151C188.981 419.251 188.177 420.006 186.368 420.006C184.894 420.006 183.118 419.388 182.18 418.804L181.376 421.862C182.582 422.549 184.358 423.03 186.334 423.03Z" fill="white"/>
<path d="M190.755 402.443V400.534H163.211V402.443H190.755Z" fill="white"/>
</g>
<path d="M203.304 405.471L204.966 410.914H205.027L206.689 405.471H208.699L206.192 412.902H203.801L201.294 405.471H203.304Z" fill="white"/>
<path d="M211.499 405.471V412.902H209.703V405.471H211.499Z" fill="white"/>
<path d="M216.848 407.699C216.824 407.433 216.716 407.226 216.525 407.079C216.336 406.929 216.066 406.854 215.716 406.854C215.484 406.854 215.29 406.884 215.135 406.944C214.98 407.005 214.864 407.088 214.787 407.195C214.709 407.299 214.67 407.418 214.667 407.554C214.662 407.665 214.684 407.763 214.732 407.848C214.783 407.932 214.856 408.007 214.95 408.073C215.047 408.136 215.163 408.191 215.298 408.24C215.434 408.288 215.586 408.33 215.756 408.367L216.394 408.512C216.762 408.591 217.086 408.698 217.367 408.831C217.65 408.964 217.887 409.122 218.078 409.306C218.271 409.49 218.418 409.702 218.517 409.941C218.616 410.181 218.667 410.449 218.669 410.747C218.667 411.216 218.548 411.619 218.314 411.955C218.079 412.291 217.742 412.549 217.301 412.728C216.863 412.907 216.335 412.996 215.716 412.996C215.094 412.996 214.552 412.903 214.09 412.717C213.628 412.531 213.269 412.248 213.013 411.868C212.756 411.488 212.624 411.008 212.617 410.427H214.337C214.351 410.667 214.416 410.866 214.529 411.026C214.643 411.186 214.799 411.307 214.997 411.389C215.198 411.471 215.43 411.512 215.694 411.512C215.936 411.512 216.141 411.48 216.311 411.414C216.482 411.349 216.614 411.258 216.706 411.142C216.798 411.026 216.845 410.893 216.848 410.743C216.845 410.603 216.802 410.483 216.717 410.384C216.632 410.282 216.502 410.195 216.325 410.123C216.151 410.048 215.929 409.979 215.658 409.916L214.881 409.734C214.238 409.587 213.731 409.349 213.361 409.02C212.991 408.688 212.807 408.241 212.809 407.677C212.807 407.218 212.93 406.815 213.18 406.469C213.429 406.123 213.773 405.853 214.214 405.66C214.654 405.466 215.156 405.37 215.719 405.37C216.295 405.37 216.794 405.468 217.218 405.664C217.644 405.857 217.974 406.129 218.208 406.48C218.443 406.831 218.563 407.237 218.568 407.699H216.848Z" fill="white"/>
<path d="M221.159 412.902H219.229L221.736 405.471H224.127L226.634 412.902H224.704L222.958 407.343H222.9L221.159 412.902ZM220.901 409.977H224.936V411.342H220.901V409.977Z" fill="white"/>
<path d="M231.425 407.699C231.401 407.433 231.293 407.226 231.102 407.079C230.913 406.929 230.644 406.854 230.293 406.854C230.061 406.854 229.867 406.884 229.712 406.944C229.558 407.005 229.441 407.088 229.364 407.195C229.287 407.299 229.247 407.418 229.244 407.554C229.239 407.665 229.261 407.763 229.31 407.848C229.36 407.932 229.433 408.007 229.527 408.073C229.624 408.136 229.74 408.191 229.876 408.24C230.011 408.288 230.163 408.33 230.333 408.367L230.971 408.512C231.339 408.591 231.663 408.698 231.944 408.831C232.227 408.964 232.464 409.122 232.655 409.306C232.848 409.49 232.995 409.702 233.094 409.941C233.193 410.181 233.244 410.449 233.246 410.747C233.244 411.216 233.125 411.619 232.891 411.955C232.656 412.291 232.319 412.549 231.878 412.728C231.441 412.907 230.912 412.996 230.293 412.996C229.671 412.996 229.129 412.903 228.667 412.717C228.205 412.531 227.846 412.248 227.59 411.868C227.333 411.488 227.202 411.008 227.194 410.427H228.914C228.929 410.667 228.993 410.866 229.106 411.026C229.22 411.186 229.376 411.307 229.574 411.389C229.775 411.471 230.007 411.512 230.271 411.512C230.513 411.512 230.719 411.48 230.888 411.414C231.06 411.349 231.191 411.258 231.283 411.142C231.375 411.026 231.422 410.893 231.425 410.743C231.422 410.603 231.379 410.483 231.294 410.384C231.21 410.282 231.079 410.195 230.902 410.123C230.728 410.048 230.506 409.979 230.235 409.916L229.458 409.734C228.815 409.587 228.308 409.349 227.938 409.02C227.568 408.688 227.384 408.241 227.387 407.677C227.384 407.218 227.508 406.815 227.757 406.469C228.006 406.123 228.351 405.853 228.791 405.66C229.231 405.466 229.733 405.37 230.296 405.37C230.872 405.37 231.372 405.468 231.795 405.664C232.221 405.857 232.551 406.129 232.785 406.48C233.02 406.831 233.14 407.237 233.145 407.699H231.425Z" fill="white"/>
<path d="M243.771 409.186C243.771 410.004 243.614 410.697 243.299 411.266C242.985 411.834 242.559 412.266 242.022 412.561C241.488 412.856 240.888 413.003 240.223 413.003C239.555 413.003 238.954 412.855 238.419 412.557C237.885 412.26 237.46 411.828 237.146 411.262C236.834 410.693 236.678 410.002 236.678 409.186C236.678 408.369 236.834 407.676 237.146 407.108C237.46 406.539 237.885 406.107 238.419 405.812C238.954 405.517 239.555 405.37 240.223 405.37C240.888 405.37 241.488 405.517 242.022 405.812C242.559 406.107 242.985 406.539 243.299 407.108C243.614 407.676 243.771 408.369 243.771 409.186ZM241.935 409.186C241.935 408.703 241.866 408.294 241.728 407.96C241.593 407.626 241.397 407.374 241.141 407.202C240.887 407.03 240.58 406.944 240.223 406.944C239.867 406.944 239.561 407.03 239.305 407.202C239.048 407.374 238.851 407.626 238.713 407.96C238.578 408.294 238.51 408.703 238.51 409.186C238.51 409.67 238.578 410.079 238.713 410.413C238.851 410.747 239.048 410.999 239.305 411.171C239.561 411.343 239.867 411.429 240.223 411.429C240.58 411.429 240.887 411.343 241.141 411.171C241.397 410.999 241.593 410.747 241.728 410.413C241.866 410.079 241.935 409.67 241.935 409.186Z" fill="white"/>
<path d="M251.348 405.471V412.902H249.824L246.867 408.613H246.819V412.902H245.023V405.471H246.569L249.493 409.753H249.555V405.471H251.348Z" fill="white"/>
<path d="M201.796 417.169V415.71H208.076V417.169H205.823V423.141H204.053V417.169H201.796Z" fill="white"/>
<path d="M210.954 415.71V423.141H209.158V415.71H210.954Z" fill="white"/>
<path d="M212.286 415.71H214.51L216.397 420.311H216.484L218.371 415.71H220.595V423.141H218.846V418.577H218.784L216.999 423.094H215.882L214.097 418.551H214.035V423.141H212.286V415.71Z" fill="white"/>
<path d="M221.919 423.141V415.71H227.1V417.169H223.715V418.693H226.835V420.155H223.715V421.682H227.1V423.141H221.919Z" fill="white"/>
</g>
<g clip-path="url(#clip1_11063_74627)">
<path d="M180.391 475.69C180.4 476.684 180.212 477.669 179.837 478.592C179.486 479.457 178.953 480.242 178.274 480.893C177.583 481.546 176.767 482.058 175.873 482.399C173.908 483.125 171.742 483.125 169.778 482.399C168.889 482.056 168.079 481.544 167.392 480.893C166.712 480.242 166.18 479.458 165.829 478.592C165.09 476.726 165.09 474.655 165.829 472.789C166.18 471.923 166.712 471.139 167.392 470.488C168.079 469.837 168.889 469.325 169.778 468.982C171.742 468.256 173.908 468.256 175.873 468.982C176.767 469.323 177.583 469.835 178.274 470.488C178.953 471.139 179.486 471.923 179.837 472.789C180.212 473.712 180.4 474.697 180.391 475.69ZM172.833 479.846C173.387 479.871 173.941 479.781 174.457 479.582C174.974 479.383 175.442 479.079 175.83 478.691C176.555 477.853 176.953 476.79 176.953 475.692C176.953 474.593 176.555 473.531 175.83 472.693C175.442 472.305 174.974 472.001 174.457 471.802C173.941 471.602 173.387 471.512 172.833 471.537C172.277 471.513 171.721 471.603 171.202 471.802C170.683 472.002 170.213 472.305 169.821 472.693C169.088 473.527 168.685 474.591 168.685 475.692C168.685 476.793 169.088 477.857 169.821 478.691C170.213 479.079 170.683 479.382 171.202 479.581C171.721 479.78 172.277 479.871 172.833 479.846Z" fill="white"/>
<path d="M192.525 482.581V475.412C192.525 474.092 192.203 473.115 191.559 472.482C190.841 471.871 189.923 471.535 188.973 471.535C188.023 471.535 187.105 471.871 186.388 472.482C185.744 473.115 185.422 474.091 185.422 475.412V482.581H182.042V475.412C182.021 474.382 182.189 473.357 182.538 472.386C182.839 471.568 183.319 470.825 183.945 470.209C184.566 469.615 185.313 469.162 186.133 468.885C187.047 468.577 188.008 468.426 188.974 468.438C189.939 468.426 190.9 468.572 191.816 468.87C192.637 469.14 193.384 469.588 194.003 470.182C194.631 470.801 195.112 471.548 195.41 472.371C195.759 473.348 195.927 474.377 195.907 475.412V482.582L192.525 482.581Z" fill="white"/>
<path d="M201.106 476.862V476.918C201.294 477.787 201.781 478.565 202.484 479.122C203.239 479.682 204.168 479.968 205.113 479.931C206.628 479.931 207.736 479.494 208.437 478.619H212.046C211.536 479.915 210.621 481.019 209.432 481.772C208.142 482.574 206.639 482.982 205.113 482.943C204.068 482.957 203.031 482.772 202.058 482.399C201.17 482.056 200.359 481.544 199.672 480.893C198.993 480.242 198.461 479.458 198.109 478.592C197.37 476.726 197.37 474.655 198.109 472.789C198.461 471.923 198.993 471.139 199.672 470.488C200.359 469.837 201.17 469.325 202.058 468.982C204.023 468.256 206.189 468.256 208.153 468.982C209.039 469.313 209.844 469.824 210.517 470.479C211.19 471.135 211.715 471.922 212.06 472.789C212.435 473.711 212.624 474.697 212.614 475.69V476.862L201.106 476.862ZM205.113 471.45C204.217 471.419 203.335 471.673 202.599 472.176C201.922 472.667 201.427 473.363 201.192 474.157V474.212H209.035V474.157C208.799 473.36 208.299 472.663 207.614 472.176C206.881 471.677 206.004 471.422 205.113 471.45Z" fill="white"/>
<path d="M170.446 498.252L164.934 484.472H168.627L172.491 495.128H172.549L176.413 484.472H180.022L174.509 498.252H170.446Z" fill="white"/>
<path d="M195.166 498.25H192.069V495.683H192.012C191.635 496.573 190.978 497.321 190.136 497.818C189.201 498.364 188.127 498.64 187.039 498.613C186.186 498.609 185.339 498.458 184.539 498.166C183.708 497.871 182.949 497.41 182.308 496.813C181.629 496.172 181.088 495.404 180.718 494.553C180.288 493.543 180.08 492.454 180.107 491.36C180.097 490.366 180.285 489.381 180.66 488.458C181.012 487.593 181.544 486.809 182.224 486.158C182.911 485.506 183.721 484.994 184.61 484.651C185.583 484.278 186.62 484.094 187.665 484.107C188.703 484.096 189.734 484.276 190.705 484.638C191.593 484.966 192.402 485.474 193.078 486.129C193.744 486.791 194.266 487.579 194.612 488.445C194.993 489.409 195.181 490.437 195.166 491.471L195.166 498.25ZM187.665 495.516C188.219 495.541 188.773 495.451 189.289 495.252C189.806 495.052 190.274 494.749 190.662 494.36C191.387 493.523 191.785 492.46 191.785 491.361C191.785 490.263 191.387 489.2 190.662 488.363C190.274 487.973 189.806 487.669 189.289 487.47C188.773 487.27 188.219 487.18 187.665 487.205C187.108 487.18 186.553 487.271 186.034 487.47C185.515 487.67 185.044 487.974 184.652 488.363C183.919 489.196 183.516 490.26 183.516 491.361C183.516 492.462 183.919 493.526 184.652 494.36C185.045 494.748 185.515 495.052 186.034 495.251C186.553 495.45 187.108 495.54 187.665 495.516Z" fill="white"/>
<path d="M204.971 488.432C204.953 488.225 204.888 488.024 204.78 487.845C204.672 487.667 204.523 487.515 204.346 487.401C203.877 487.117 203.332 486.981 202.782 487.011C202.183 486.966 201.587 487.123 201.092 487.457C200.915 487.593 200.773 487.766 200.677 487.965C200.581 488.163 200.534 488.381 200.538 488.601C200.53 488.789 200.583 488.974 200.691 489.13C200.798 489.286 200.953 489.404 201.134 489.466C201.618 489.656 202.124 489.787 202.64 489.856C203.246 489.95 203.895 490.043 204.587 490.137C205.261 490.225 205.917 490.413 206.533 490.694C207.129 490.965 207.647 491.377 208.039 491.894C208.437 492.414 208.636 493.149 208.636 494.097C208.643 494.723 208.503 495.341 208.227 495.904C207.951 496.468 207.546 496.961 207.045 497.346C206.489 497.768 205.858 498.085 205.184 498.28C204.396 498.512 203.577 498.625 202.754 498.615C201.936 498.626 201.122 498.513 200.339 498.28C199.672 498.084 199.048 497.772 198.493 497.36C197.996 496.987 197.589 496.51 197.3 495.965C197.012 495.412 196.856 494.802 196.846 494.181H200.255C200.261 494.404 200.322 494.622 200.434 494.816C200.545 495.011 200.703 495.175 200.894 495.296C201.44 495.61 202.068 495.756 202.699 495.715C203.608 495.715 204.257 495.566 204.645 495.268C204.831 495.133 204.981 494.956 205.082 494.752C205.184 494.548 205.234 494.323 205.228 494.097C205.237 493.91 205.183 493.726 205.075 493.572C204.967 493.419 204.811 493.304 204.631 493.246C204.145 493.066 203.64 492.945 203.125 492.883C202.518 492.8 201.87 492.712 201.179 492.619C200.507 492.531 199.851 492.348 199.232 492.074C198.63 491.808 198.11 491.389 197.727 490.861C197.291 490.188 197.082 489.398 197.13 488.601C197.123 487.98 197.259 487.365 197.527 486.802C197.793 486.254 198.176 485.769 198.65 485.379C199.171 484.96 199.769 484.643 200.411 484.445C201.161 484.214 201.942 484.1 202.728 484.11C203.508 484.1 204.285 484.213 205.029 484.445C205.664 484.644 206.257 484.956 206.777 485.366C207.245 485.739 207.627 486.205 207.899 486.733C208.166 487.263 208.312 487.843 208.326 488.434L204.971 488.432Z" fill="white"/>
<path d="M221.166 489.628C220.878 488.903 220.366 488.284 219.702 487.857C218.987 487.408 218.151 487.179 217.302 487.201C216.745 487.177 216.189 487.267 215.671 487.467C215.152 487.666 214.681 487.97 214.289 488.359C213.556 489.192 213.153 490.256 213.153 491.358C213.153 492.459 213.556 493.523 214.289 494.356C214.681 494.745 215.152 495.048 215.671 495.247C216.19 495.446 216.745 495.536 217.302 495.512C218.151 495.534 218.987 495.305 219.702 494.856C220.366 494.43 220.878 493.81 221.166 493.085H224.576C224.415 493.879 224.112 494.639 223.681 495.33C223.264 495.998 222.73 496.589 222.103 497.074C221.455 497.57 220.725 497.952 219.944 498.203C219.092 498.479 218.2 498.616 217.303 498.609C216.259 498.622 215.222 498.438 214.248 498.065C213.36 497.722 212.549 497.21 211.862 496.559C211.183 495.907 210.651 495.123 210.3 494.257C209.56 492.391 209.56 490.321 210.3 488.455C210.651 487.589 211.183 486.805 211.862 486.154C212.549 485.503 213.36 484.991 214.248 484.647C215.221 484.275 216.259 484.09 217.303 484.103C218.2 484.096 219.092 484.233 219.944 484.509C220.725 484.761 221.455 485.143 222.103 485.639C222.73 486.124 223.264 486.714 223.681 487.382C224.112 488.073 224.415 488.833 224.576 489.627L221.166 489.628Z" fill="white"/>
<path d="M240.77 491.359C240.78 492.352 240.591 493.338 240.216 494.26C239.865 495.126 239.332 495.91 238.653 496.562C237.962 497.215 237.146 497.727 236.253 498.069C234.288 498.793 232.122 498.793 230.158 498.069C229.269 497.725 228.459 497.213 227.771 496.562C227.092 495.91 226.56 495.126 226.208 494.26C225.47 492.394 225.47 490.324 226.208 488.458C226.559 487.592 227.092 486.808 227.771 486.157C228.458 485.506 229.269 484.994 230.158 484.65C232.122 483.924 234.288 483.924 236.253 484.65C237.147 484.991 237.963 485.504 238.653 486.157C239.333 486.808 239.865 487.592 240.216 488.458C240.591 489.38 240.779 490.366 240.77 491.359ZM233.214 495.515C233.768 495.54 234.321 495.45 234.838 495.251C235.355 495.052 235.822 494.748 236.211 494.359C236.936 493.522 237.333 492.459 237.333 491.361C237.333 490.262 236.936 489.199 236.211 488.362C235.823 487.973 235.355 487.668 234.838 487.469C234.322 487.269 233.768 487.179 233.214 487.204C232.657 487.18 232.101 487.27 231.583 487.47C231.064 487.669 230.593 487.973 230.201 488.362C229.468 489.195 229.065 490.26 229.065 491.361C229.065 492.462 229.468 493.526 230.201 494.359C230.593 494.748 231.064 495.051 231.583 495.25C232.102 495.449 232.657 495.54 233.214 495.515Z" fill="white"/>
<path d="M130.796 507.472L129.139 503.001H130.107L131.291 506.432H131.305L132.482 503.001H133.429L131.779 507.472H130.796Z" fill="white"/>
<path d="M134.291 503.691C134.219 503.691 134.147 503.677 134.08 503.65C134.013 503.623 133.952 503.583 133.901 503.533C133.85 503.483 133.81 503.423 133.782 503.357C133.755 503.292 133.741 503.221 133.741 503.15C133.739 503.078 133.753 503.006 133.78 502.939C133.807 502.872 133.848 502.811 133.9 502.76C134.005 502.66 134.146 502.603 134.292 502.603C134.439 502.603 134.579 502.66 134.684 502.76C134.735 502.812 134.776 502.873 134.803 502.94C134.83 503.007 134.843 503.078 134.841 503.15C134.842 503.221 134.829 503.292 134.802 503.358C134.775 503.423 134.735 503.483 134.684 503.533C134.633 503.585 134.572 503.625 134.504 503.652C134.437 503.679 134.364 503.692 134.291 503.691ZM133.881 507.47V504.094H134.71V507.47H133.881Z" fill="white"/>
<path d="M137.23 505.064C137.226 505.013 137.21 504.964 137.183 504.921C137.156 504.877 137.12 504.839 137.076 504.812C136.962 504.742 136.829 504.709 136.695 504.716C136.548 504.705 136.402 504.744 136.281 504.825C136.238 504.858 136.203 504.901 136.179 504.95C136.156 504.999 136.144 505.052 136.145 505.106C136.143 505.152 136.157 505.198 136.183 505.236C136.209 505.274 136.247 505.303 136.292 505.318C136.41 505.365 136.534 505.397 136.661 505.414C136.809 505.437 136.968 505.459 137.138 505.482C137.303 505.504 137.464 505.55 137.615 505.619C137.762 505.685 137.888 505.786 137.984 505.913C138.091 506.073 138.142 506.262 138.13 506.453C138.132 506.606 138.098 506.757 138.03 506.896C137.963 507.034 137.863 507.155 137.74 507.249C137.604 507.353 137.45 507.43 137.285 507.478C137.092 507.535 136.891 507.562 136.689 507.56C136.489 507.563 136.289 507.535 136.097 507.478C135.934 507.43 135.78 507.353 135.645 507.252C135.523 507.161 135.423 507.044 135.352 506.91C135.282 506.775 135.244 506.625 135.241 506.473H136.077C136.078 506.528 136.093 506.581 136.12 506.629C136.147 506.676 136.186 506.717 136.233 506.746C136.367 506.823 136.521 506.858 136.676 506.848C136.842 506.863 137.01 506.824 137.153 506.739C137.198 506.706 137.235 506.663 137.259 506.613C137.284 506.563 137.296 506.508 137.295 506.452C137.297 506.406 137.284 506.361 137.258 506.323C137.231 506.286 137.193 506.258 137.149 506.243C137.03 506.2 136.906 506.17 136.78 506.154L136.303 506.089C136.138 506.069 135.977 506.024 135.826 505.956C135.678 505.891 135.551 505.789 135.457 505.659C135.35 505.494 135.299 505.301 135.311 505.106C135.308 504.954 135.342 504.803 135.408 504.665C135.473 504.53 135.567 504.411 135.683 504.316C135.81 504.213 135.957 504.135 136.114 504.087C136.298 504.03 136.489 504.002 136.682 504.005C136.873 504.002 137.064 504.03 137.246 504.087C137.402 504.135 137.547 504.212 137.674 504.312C137.789 504.403 137.882 504.518 137.949 504.647C138.014 504.777 138.05 504.919 138.054 505.064L137.23 505.064Z" fill="white"/>
<path d="M142.092 507.469H141.333V506.84H141.319C141.226 507.058 141.065 507.241 140.859 507.363C140.63 507.497 140.367 507.565 140.1 507.558C139.891 507.557 139.683 507.52 139.487 507.449C139.284 507.376 139.098 507.263 138.941 507.117C138.774 506.96 138.642 506.772 138.55 506.564C138.445 506.316 138.395 506.049 138.401 505.78C138.399 505.537 138.445 505.296 138.536 505.07C138.622 504.858 138.752 504.667 138.918 504.507C139.087 504.348 139.285 504.222 139.503 504.138C139.742 504.047 139.996 504.001 140.252 504.005C140.506 504.002 140.759 504.046 140.997 504.135C141.215 504.215 141.413 504.34 141.579 504.501C141.742 504.662 141.87 504.856 141.954 505.068C142.048 505.304 142.094 505.556 142.091 505.81L142.092 507.469ZM140.253 506.799C140.389 506.805 140.525 506.783 140.651 506.734C140.778 506.685 140.892 506.611 140.987 506.515C141.165 506.31 141.263 506.05 141.263 505.78C141.263 505.511 141.165 505.25 140.987 505.045C140.892 504.95 140.778 504.875 140.651 504.826C140.525 504.777 140.389 504.755 140.253 504.761C140.117 504.755 139.981 504.778 139.853 504.827C139.726 504.875 139.611 504.95 139.515 505.045C139.335 505.25 139.236 505.51 139.236 505.78C139.236 506.05 139.335 506.311 139.515 506.515C139.611 506.611 139.726 506.685 139.853 506.734C139.981 506.783 140.117 506.805 140.253 506.799Z" fill="white"/>
<path d="M148.072 504.622C147.971 504.355 147.785 504.126 147.543 503.969C147.282 503.803 146.977 503.718 146.666 503.726C146.454 503.723 146.243 503.761 146.046 503.839C145.866 503.91 145.704 504.017 145.568 504.153C145.434 504.291 145.328 504.454 145.258 504.632C145.11 505.022 145.11 505.452 145.258 505.842C145.329 506.021 145.434 506.185 145.568 506.324C145.702 506.462 145.865 506.571 146.046 506.642C146.243 506.719 146.454 506.758 146.666 506.755C146.977 506.763 147.283 506.677 147.543 506.509C147.785 506.35 147.97 506.12 148.072 505.853H149.013C148.951 506.101 148.845 506.337 148.702 506.55C148.563 506.757 148.388 506.94 148.187 507.09C147.978 507.243 147.745 507.361 147.497 507.439C147.228 507.522 146.948 507.564 146.666 507.562C146.331 507.566 145.999 507.507 145.687 507.388C145.401 507.277 145.141 507.112 144.921 506.902C144.704 506.693 144.534 506.443 144.42 506.167C144.183 505.57 144.183 504.908 144.42 504.311C144.533 504.033 144.704 503.782 144.921 503.572C145.141 503.363 145.402 503.198 145.687 503.087C145.999 502.968 146.331 502.909 146.666 502.913C146.948 502.911 147.228 502.953 147.497 503.036C147.745 503.113 147.979 503.231 148.187 503.385C148.389 503.535 148.563 503.718 148.702 503.925C148.846 504.138 148.951 504.374 149.013 504.622L148.072 504.622Z" fill="white"/>
<path d="M153.003 505.78C153.005 506.024 152.959 506.265 152.867 506.491C152.781 506.703 152.651 506.896 152.486 507.056C152.316 507.216 152.116 507.341 151.897 507.425C151.415 507.602 150.885 507.602 150.404 507.425C150.186 507.341 149.987 507.215 149.818 507.056C149.652 506.896 149.522 506.704 149.436 506.491C149.254 506.034 149.254 505.527 149.436 505.069C149.522 504.858 149.652 504.666 149.818 504.507C149.987 504.347 150.186 504.222 150.404 504.138C150.885 503.96 151.415 503.96 151.897 504.138C152.116 504.221 152.316 504.347 152.486 504.507C152.651 504.667 152.781 504.858 152.867 505.069C152.959 505.296 153.005 505.537 153.003 505.78ZM151.151 506.799C151.286 506.805 151.422 506.783 151.549 506.734C151.675 506.685 151.79 506.611 151.885 506.515C152.063 506.31 152.16 506.05 152.16 505.78C152.16 505.511 152.063 505.251 151.885 505.045C151.79 504.95 151.675 504.875 151.549 504.827C151.422 504.778 151.286 504.755 151.151 504.762C151.014 504.756 150.878 504.778 150.751 504.827C150.624 504.876 150.508 504.95 150.412 505.045C150.232 505.25 150.134 505.511 150.134 505.78C150.134 506.05 150.232 506.311 150.412 506.515C150.508 506.611 150.623 506.685 150.751 506.734C150.878 506.783 151.014 506.805 151.15 506.799L151.151 506.799Z" fill="white"/>
<path d="M155.977 507.471V505.714C155.988 505.585 155.973 505.454 155.932 505.331C155.891 505.208 155.826 505.094 155.74 504.995C155.564 504.845 155.339 504.763 155.106 504.763C154.874 504.763 154.649 504.845 154.473 504.995C154.387 505.094 154.321 505.208 154.281 505.331C154.24 505.454 154.225 505.585 154.236 505.714V507.471H153.407V505.714C153.402 505.461 153.443 505.21 153.529 504.972C153.603 504.772 153.72 504.59 153.873 504.439C154.025 504.293 154.209 504.182 154.41 504.114C154.634 504.039 154.87 504.002 155.107 504.005C155.343 504.002 155.578 504.038 155.803 504.111C156.004 504.177 156.187 504.287 156.339 504.432C156.493 504.584 156.61 504.767 156.684 504.968C156.769 505.208 156.81 505.46 156.806 505.713V507.47L155.977 507.471Z" fill="white"/>
<path d="M160.008 505.36C159.937 505.182 159.812 505.03 159.649 504.925C159.474 504.816 159.269 504.76 159.061 504.765C158.925 504.759 158.789 504.782 158.662 504.83C158.535 504.879 158.419 504.954 158.323 505.049C158.143 505.253 158.044 505.514 158.044 505.784C158.044 506.054 158.143 506.315 158.323 506.519C158.419 506.614 158.535 506.689 158.662 506.738C158.789 506.786 158.925 506.809 159.061 506.803C159.27 506.808 159.474 506.752 159.649 506.642C159.812 506.537 159.938 506.386 160.008 506.208H160.844C160.804 506.403 160.73 506.589 160.625 506.758C160.523 506.922 160.392 507.066 160.238 507.185C160.079 507.307 159.9 507.4 159.709 507.462C159.253 507.605 158.761 507.593 158.312 507.428C158.095 507.344 157.896 507.219 157.727 507.059C157.562 506.899 157.432 506.707 157.346 506.495C157.165 506.038 157.165 505.53 157.346 505.073C157.432 504.862 157.562 504.67 157.727 504.511C157.896 504.351 158.094 504.226 158.312 504.141C158.551 504.05 158.805 504.005 159.061 504.008C159.281 504.006 159.5 504.04 159.709 504.107C159.9 504.169 160.079 504.263 160.238 504.384C160.392 504.503 160.522 504.648 160.625 504.812C160.73 504.981 160.804 505.167 160.844 505.362L160.008 505.36Z" fill="white"/>
<path d="M161.776 503.691C161.704 503.691 161.632 503.677 161.565 503.65C161.498 503.623 161.437 503.583 161.386 503.533C161.335 503.483 161.294 503.423 161.267 503.358C161.239 503.292 161.225 503.221 161.226 503.15C161.224 503.078 161.238 503.006 161.265 502.939C161.293 502.872 161.334 502.811 161.387 502.76C161.491 502.66 161.632 502.603 161.778 502.603C161.925 502.603 162.066 502.66 162.17 502.76C162.221 502.812 162.261 502.873 162.288 502.94C162.315 503.007 162.328 503.078 162.326 503.15C162.327 503.221 162.314 503.292 162.287 503.357C162.261 503.423 162.221 503.483 162.17 503.534C162.119 503.585 162.058 503.626 161.99 503.653C161.922 503.68 161.849 503.693 161.776 503.691ZM161.365 507.47V504.094H162.192V507.47H161.365Z" fill="white"/>
<path d="M163.587 506.067V506.082C163.633 506.294 163.752 506.485 163.924 506.621C164.109 506.759 164.337 506.829 164.569 506.82C164.721 506.833 164.874 506.811 165.015 506.755C165.156 506.699 165.283 506.611 165.383 506.499H166.268C166.142 506.816 165.918 507.087 165.627 507.271C165.311 507.468 164.943 507.568 164.569 507.558C164.313 507.561 164.059 507.516 163.82 507.425C163.602 507.341 163.404 507.216 163.235 507.056C163.069 506.896 162.939 506.704 162.853 506.492C162.673 506.034 162.673 505.527 162.853 505.07C162.939 504.858 163.069 504.667 163.235 504.508C163.403 504.348 163.602 504.222 163.82 504.138C164.302 503.96 164.833 503.96 165.315 504.138C165.533 504.221 165.731 504.346 165.897 504.508C166.06 504.668 166.187 504.859 166.273 505.07C166.365 505.296 166.411 505.537 166.408 505.78V506.067L163.587 506.067ZM164.569 504.742C164.349 504.734 164.133 504.796 163.952 504.919C163.786 505.039 163.665 505.21 163.608 505.405V505.419H165.53V505.405C165.471 505.21 165.349 505.039 165.182 504.92C165.002 504.798 164.787 504.735 164.569 504.741V504.742Z" fill="white"/>
<path d="M169.006 505.542V505.508C169.017 505.404 169.006 505.299 168.974 505.2C168.942 505.101 168.889 505.009 168.818 504.931C168.677 504.822 168.503 504.763 168.324 504.763C168.145 504.763 167.971 504.822 167.83 504.931C167.759 505.009 167.706 505.101 167.673 505.2C167.641 505.299 167.63 505.404 167.641 505.508V507.47H166.814V505.508C166.809 505.281 166.847 505.055 166.925 504.842C166.989 504.667 167.093 504.508 167.229 504.379C167.366 504.25 167.531 504.153 167.711 504.097C168.111 503.974 168.538 503.974 168.937 504.097C169.116 504.154 169.279 504.251 169.415 504.378C169.552 504.511 169.656 504.672 169.721 504.85C169.797 505.066 169.834 505.294 169.829 505.523V505.544L169.006 505.542Z" fill="white"/>
<path d="M172.856 506.96H172.843C172.729 507.135 172.569 507.277 172.38 507.37C172.167 507.473 171.932 507.525 171.695 507.52C171.486 507.519 171.279 507.485 171.082 507.417C170.879 507.35 170.693 507.242 170.535 507.1C170.369 506.948 170.236 506.764 170.145 506.56C169.95 506.083 169.945 505.553 170.131 505.073C170.217 504.862 170.347 504.67 170.512 504.511C170.681 504.351 170.879 504.225 171.097 504.141C171.336 504.05 171.59 504.005 171.846 504.008C172.101 504.006 172.353 504.05 172.591 504.138C172.809 504.219 173.007 504.343 173.173 504.504C173.336 504.666 173.464 504.859 173.548 505.072C173.642 505.308 173.688 505.56 173.684 505.813V507.208C173.691 507.49 173.643 507.771 173.542 508.035C173.46 508.244 173.33 508.432 173.161 508.583C172.992 508.735 172.79 508.845 172.57 508.906C172.34 508.974 172.1 509.007 171.86 509.005C171.657 509.007 171.454 508.984 171.257 508.937C171.076 508.894 170.903 508.823 170.746 508.726C170.593 508.63 170.461 508.507 170.355 508.363C170.243 508.206 170.161 508.03 170.112 507.844H170.948C171.012 507.998 171.134 508.123 171.289 508.193C171.469 508.269 171.664 508.307 171.86 508.302C172.125 508.316 172.385 508.23 172.588 508.062C172.688 507.95 172.764 507.818 172.81 507.676C172.856 507.534 172.871 507.383 172.856 507.235L172.856 506.96ZM172.856 505.783C172.862 505.649 172.841 505.515 172.793 505.389C172.746 505.263 172.674 505.147 172.581 505.049C172.486 504.953 172.371 504.879 172.245 504.83C172.118 504.781 171.983 504.759 171.847 504.765C171.71 504.759 171.574 504.781 171.447 504.83C171.32 504.879 171.205 504.953 171.108 505.049C171.015 505.147 170.942 505.262 170.894 505.389C170.846 505.515 170.825 505.649 170.83 505.783C170.823 505.915 170.844 506.047 170.892 506.17C170.94 506.293 171.014 506.405 171.108 506.499C171.208 506.588 171.324 506.657 171.451 506.703C171.578 506.748 171.712 506.768 171.847 506.762C171.981 506.768 172.115 506.748 172.241 506.703C172.367 506.658 172.483 506.588 172.581 506.499C172.675 506.405 172.748 506.292 172.795 506.169C172.843 506.046 172.863 505.915 172.856 505.783Z" fill="white"/>
<path d="M174.96 506.067V506.081C175.006 506.294 175.125 506.485 175.298 506.621C175.483 506.759 175.71 506.829 175.942 506.82C176.094 506.833 176.247 506.811 176.388 506.755C176.53 506.699 176.656 506.611 176.757 506.499H177.641C177.516 506.816 177.291 507.086 177 507.271C176.684 507.468 176.316 507.568 175.942 507.558C175.686 507.561 175.432 507.516 175.193 507.425C174.975 507.341 174.777 507.215 174.608 507.056C174.442 506.896 174.312 506.704 174.226 506.492C174.046 506.034 174.046 505.527 174.226 505.07C174.312 504.858 174.442 504.667 174.608 504.508C174.776 504.348 174.975 504.222 175.193 504.138C175.675 503.96 176.206 503.96 176.688 504.138C176.906 504.221 177.104 504.346 177.27 504.508C177.432 504.668 177.56 504.859 177.646 505.07C177.737 505.296 177.783 505.537 177.781 505.78V506.067L174.96 506.067ZM175.942 504.742C175.723 504.734 175.506 504.796 175.325 504.919C175.159 505.039 175.038 505.21 174.981 505.405V505.419H176.901V505.405C176.843 505.21 176.721 505.039 176.554 504.92C176.374 504.798 176.159 504.735 175.941 504.741L175.942 504.742Z" fill="white"/>
<path d="M182.25 504.293C182.25 504.213 182.233 504.133 182.199 504.06C182.165 503.987 182.116 503.922 182.055 503.869C181.894 503.748 181.693 503.69 181.491 503.705C181.287 503.689 181.085 503.752 180.927 503.879C180.867 503.932 180.819 503.997 180.787 504.069C180.754 504.142 180.738 504.22 180.739 504.299C180.736 504.349 180.743 504.4 180.761 504.447C180.779 504.495 180.807 504.538 180.844 504.573C180.924 504.642 181.017 504.696 181.118 504.73C181.245 504.774 181.376 504.806 181.509 504.825C181.655 504.848 181.803 504.876 181.954 504.907C182.105 504.939 182.254 504.981 182.4 505.032C182.541 505.079 182.673 505.151 182.789 505.244C182.908 505.341 183.002 505.464 183.065 505.603C183.14 505.779 183.175 505.969 183.169 506.16C183.172 506.362 183.131 506.563 183.047 506.748C182.968 506.918 182.85 507.069 182.703 507.188C182.545 507.314 182.364 507.41 182.17 507.469C181.946 507.538 181.712 507.571 181.477 507.569C181.244 507.571 181.013 507.539 180.791 507.472C180.598 507.416 180.418 507.323 180.262 507.199C180.116 507.081 179.998 506.933 179.918 506.765C179.831 506.585 179.786 506.388 179.785 506.188H180.655C180.655 506.27 180.674 506.352 180.71 506.427C180.746 506.501 180.799 506.567 180.864 506.619C181.043 506.741 181.259 506.799 181.477 506.782C181.696 506.799 181.915 506.741 182.097 506.619C182.162 506.567 182.214 506.501 182.249 506.427C182.284 506.352 182.301 506.27 182.298 506.188C182.301 506.138 182.293 506.088 182.275 506.041C182.257 505.994 182.23 505.951 182.195 505.915C182.117 505.841 182.023 505.786 181.919 505.753C181.793 505.712 181.664 505.68 181.532 505.66C181.389 505.637 181.24 505.61 181.087 505.578C180.936 505.546 180.787 505.504 180.641 505.453C180.501 505.405 180.37 505.332 180.255 505.238C180.138 505.139 180.044 505.017 179.98 504.879C179.904 504.704 179.869 504.515 179.875 504.325C179.873 504.13 179.912 503.937 179.99 503.758C180.065 503.587 180.177 503.434 180.318 503.31C180.466 503.181 180.639 503.082 180.827 503.019C181.039 502.949 181.261 502.914 181.485 502.917C181.704 502.914 181.921 502.948 182.129 503.016C182.312 503.077 182.481 503.173 182.627 503.297C182.767 503.418 182.879 503.566 182.958 503.732C183.041 503.908 183.087 504.098 183.094 504.292L182.25 504.293Z" fill="white"/>
<path d="M184.339 506.067V506.082C184.385 506.294 184.505 506.485 184.677 506.621C184.862 506.759 185.089 506.829 185.321 506.82C185.473 506.833 185.626 506.811 185.767 506.755C185.909 506.699 186.035 506.611 186.136 506.499H187.019C186.894 506.816 186.669 507.087 186.378 507.271C186.062 507.468 185.693 507.568 185.319 507.558C185.063 507.561 184.809 507.516 184.571 507.425C184.353 507.341 184.154 507.216 183.986 507.056C183.82 506.896 183.69 506.704 183.604 506.492C183.424 506.034 183.424 505.527 183.604 505.07C183.69 504.858 183.82 504.667 183.986 504.508C184.154 504.348 184.353 504.222 184.571 504.138C185.053 503.96 185.584 503.96 186.066 504.138C186.284 504.221 186.482 504.346 186.648 504.508C186.81 504.668 186.938 504.859 187.024 505.07C187.116 505.296 187.162 505.537 187.159 505.78V506.067L184.339 506.067ZM185.321 504.742C185.101 504.734 184.885 504.796 184.705 504.919C184.539 505.039 184.418 505.21 184.36 505.405V505.419H186.282V505.405C186.224 505.21 186.102 505.039 185.934 504.92C185.754 504.798 185.54 504.735 185.321 504.741V504.742Z" fill="white"/>
<path d="M189.756 505.542V505.508C189.767 505.404 189.756 505.299 189.724 505.2C189.691 505.101 189.638 505.009 189.568 504.931C189.427 504.822 189.253 504.763 189.073 504.763C188.894 504.763 188.72 504.822 188.579 504.931C188.509 505.009 188.456 505.101 188.423 505.2C188.391 505.3 188.38 505.404 188.391 505.508V507.47H187.564V505.508C187.559 505.281 187.597 505.055 187.675 504.842C187.738 504.666 187.843 504.508 187.979 504.379C188.116 504.249 188.281 504.153 188.461 504.097C188.861 503.974 189.288 503.974 189.687 504.097C189.866 504.154 190.029 504.251 190.165 504.378C190.302 504.511 190.406 504.672 190.471 504.85C190.547 505.066 190.584 505.294 190.579 505.523V505.544L189.756 505.542Z" fill="white"/>
<path d="M191.929 507.469L190.578 504.093H191.484L192.431 506.704H192.445L193.392 504.093H194.276L192.925 507.469H191.929Z" fill="white"/>
<path d="M195.125 503.691C195.053 503.691 194.981 503.677 194.914 503.65C194.847 503.623 194.786 503.583 194.735 503.533C194.684 503.483 194.644 503.423 194.616 503.357C194.589 503.292 194.575 503.221 194.575 503.15C194.573 503.078 194.587 503.006 194.614 502.939C194.641 502.872 194.682 502.811 194.734 502.76C194.839 502.66 194.98 502.603 195.126 502.603C195.273 502.603 195.413 502.66 195.518 502.76C195.569 502.812 195.61 502.873 195.637 502.94C195.664 503.007 195.677 503.078 195.675 503.15C195.676 503.221 195.663 503.292 195.636 503.358C195.609 503.423 195.569 503.483 195.518 503.533C195.467 503.585 195.406 503.625 195.338 503.652C195.271 503.679 195.198 503.692 195.125 503.691ZM194.714 507.47V504.094H195.543V507.47H194.714Z" fill="white"/>
<path d="M198.864 505.36C198.793 505.182 198.668 505.03 198.506 504.925C198.33 504.816 198.125 504.76 197.918 504.765C197.781 504.759 197.645 504.781 197.518 504.83C197.391 504.879 197.275 504.954 197.179 505.049C196.999 505.253 196.901 505.514 196.901 505.784C196.901 506.054 196.999 506.315 197.179 506.519C197.275 506.614 197.391 506.689 197.518 506.738C197.645 506.787 197.781 506.809 197.918 506.803C198.126 506.808 198.33 506.752 198.506 506.642C198.668 506.537 198.794 506.386 198.864 506.208H199.7C199.661 506.403 199.586 506.589 199.481 506.758C199.379 506.922 199.248 507.066 199.095 507.185C198.936 507.307 198.757 507.4 198.565 507.462C198.109 507.605 197.617 507.593 197.169 507.428C196.951 507.344 196.752 507.219 196.584 507.059C196.418 506.899 196.288 506.707 196.202 506.495C196.021 506.038 196.021 505.53 196.202 505.073C196.288 504.862 196.418 504.67 196.584 504.511C196.752 504.351 196.951 504.226 197.169 504.141C197.407 504.05 197.662 504.005 197.918 504.008C198.138 504.006 198.356 504.04 198.565 504.107C198.757 504.169 198.936 504.263 199.095 504.384C199.248 504.503 199.378 504.646 199.48 504.809C199.586 504.978 199.66 505.165 199.699 505.359L198.864 505.36Z" fill="white"/>
<path d="M200.835 506.07V506.085C200.881 506.297 201 506.488 201.172 506.624C201.357 506.762 201.584 506.832 201.816 506.823C201.968 506.836 202.121 506.814 202.263 506.758C202.404 506.702 202.531 506.614 202.631 506.502H203.515C203.39 506.819 203.166 507.09 202.874 507.274C202.558 507.471 202.19 507.571 201.816 507.561C201.56 507.565 201.306 507.519 201.068 507.428C200.85 507.344 200.651 507.219 200.482 507.059C200.316 506.899 200.186 506.707 200.1 506.495C199.918 506.038 199.918 505.53 200.1 505.073C200.186 504.861 200.316 504.67 200.482 504.511C200.651 504.351 200.85 504.225 201.068 504.141C201.549 503.964 202.08 503.964 202.561 504.141C202.779 504.224 202.977 504.349 203.143 504.511C203.305 504.671 203.434 504.863 203.519 505.073C203.611 505.299 203.657 505.54 203.655 505.784V506.071L200.835 506.07ZM201.816 504.745C201.597 504.737 201.381 504.799 201.2 504.922C201.034 505.042 200.913 505.213 200.856 505.408V505.422H202.777V505.408C202.719 505.212 202.596 505.041 202.427 504.922C202.248 504.8 202.034 504.738 201.816 504.745V504.745Z" fill="white"/>
<path d="M205.919 505.064C205.915 505.014 205.899 504.964 205.872 504.921C205.846 504.877 205.809 504.84 205.766 504.812C205.652 504.742 205.518 504.709 205.384 504.716C205.238 504.705 205.092 504.744 204.97 504.825C204.927 504.858 204.892 504.901 204.869 504.95C204.845 504.999 204.834 505.052 204.835 505.106C204.833 505.152 204.846 505.198 204.872 505.236C204.899 505.274 204.937 505.303 204.981 505.318C205.1 505.365 205.224 505.397 205.35 505.414C205.499 505.437 205.658 505.459 205.828 505.482C205.993 505.504 206.154 505.55 206.305 505.619C206.451 505.685 206.578 505.786 206.673 505.913C206.78 506.073 206.832 506.262 206.819 506.453C206.821 506.606 206.787 506.758 206.72 506.896C206.652 507.034 206.553 507.155 206.43 507.249C206.294 507.353 206.139 507.43 205.974 507.478C205.781 507.535 205.58 507.562 205.379 507.56C205.178 507.563 204.979 507.535 204.787 507.478C204.623 507.43 204.47 507.353 204.334 507.252C204.212 507.161 204.112 507.044 204.042 506.91C203.971 506.775 203.933 506.625 203.931 506.473H204.766C204.767 506.528 204.782 506.581 204.81 506.629C204.837 506.676 204.875 506.717 204.922 506.746C205.056 506.823 205.21 506.858 205.365 506.848C205.532 506.863 205.699 506.824 205.842 506.739C205.887 506.706 205.924 506.663 205.949 506.613C205.973 506.563 205.986 506.508 205.984 506.452C205.987 506.406 205.973 506.361 205.947 506.323C205.921 506.286 205.882 506.258 205.838 506.243C205.719 506.2 205.596 506.17 205.47 506.154L204.992 506.09C204.827 506.069 204.667 506.024 204.515 505.956C204.367 505.891 204.24 505.789 204.146 505.659C204.039 505.494 203.988 505.301 204 505.106C203.998 504.954 204.031 504.803 204.097 504.665C204.162 504.53 204.256 504.411 204.372 504.316C204.499 504.213 204.646 504.135 204.803 504.087C204.987 504.03 205.179 504.002 205.371 504.005C205.562 504.002 205.753 504.03 205.935 504.087C206.091 504.135 206.236 504.212 206.363 504.312C206.478 504.403 206.572 504.518 206.639 504.647C206.704 504.777 206.74 504.919 206.743 505.064L205.919 505.064Z" fill="white"/>
<path d="M210.8 505.064C210.796 505.013 210.78 504.964 210.753 504.921C210.727 504.877 210.69 504.839 210.647 504.812C210.532 504.742 210.399 504.709 210.265 504.716C210.118 504.705 209.973 504.744 209.851 504.825C209.808 504.858 209.773 504.901 209.749 504.95C209.726 504.999 209.714 505.052 209.716 505.106C209.714 505.152 209.727 505.198 209.754 505.236C209.78 505.274 209.818 505.303 209.862 505.318C209.981 505.365 210.105 505.397 210.231 505.414C210.38 505.437 210.538 505.459 210.708 505.482C210.874 505.504 211.035 505.55 211.186 505.619C211.332 505.685 211.459 505.786 211.555 505.913C211.662 506.073 211.713 506.262 211.701 506.453C211.702 506.606 211.668 506.758 211.6 506.897C211.532 507.035 211.433 507.155 211.311 507.249C211.175 507.353 211.02 507.43 210.855 507.478C210.662 507.535 210.461 507.562 210.26 507.56C210.059 507.563 209.859 507.535 209.667 507.478C209.504 507.43 209.351 507.353 209.215 507.252C209.093 507.161 208.993 507.044 208.923 506.91C208.852 506.775 208.814 506.625 208.812 506.473H209.647C209.648 506.528 209.663 506.581 209.691 506.629C209.718 506.677 209.757 506.717 209.804 506.746C209.938 506.823 210.091 506.858 210.246 506.848C210.413 506.863 210.58 506.824 210.723 506.739C210.769 506.706 210.805 506.663 210.83 506.613C210.855 506.563 210.867 506.508 210.866 506.452C210.868 506.406 210.855 506.361 210.829 506.324C210.802 506.286 210.764 506.258 210.72 506.243C210.601 506.2 210.477 506.17 210.351 506.154L209.873 506.089C209.708 506.069 209.548 506.024 209.396 505.956C209.248 505.891 209.121 505.789 209.027 505.659C208.92 505.494 208.869 505.301 208.881 505.106C208.879 504.954 208.912 504.803 208.978 504.665C209.043 504.53 209.137 504.411 209.253 504.316C209.381 504.213 209.527 504.135 209.685 504.087C209.869 504.03 210.06 504.002 210.253 504.005C210.444 504.002 210.634 504.03 210.816 504.087C210.972 504.135 211.117 504.212 211.244 504.312C211.359 504.403 211.453 504.517 211.519 504.647C211.585 504.777 211.621 504.919 211.624 505.064L210.8 505.064Z" fill="white"/>
<path d="M212.638 503.691C212.565 503.693 212.491 503.68 212.422 503.653C212.354 503.627 212.291 503.587 212.238 503.536C212.185 503.486 212.143 503.425 212.115 503.358C212.086 503.291 212.071 503.22 212.071 503.147C212.071 503.075 212.086 503.003 212.115 502.936C212.143 502.869 212.185 502.809 212.238 502.758C212.291 502.707 212.354 502.668 212.422 502.641C212.491 502.615 212.565 502.602 212.638 502.604C212.711 502.601 212.784 502.614 212.852 502.641C212.919 502.668 212.981 502.708 213.031 502.76C213.083 502.811 213.123 502.872 213.15 502.939C213.177 503.006 213.19 503.078 213.188 503.15C213.19 503.22 213.177 503.291 213.15 503.357C213.123 503.423 213.083 503.483 213.031 503.533C212.981 503.584 212.92 503.625 212.852 503.652C212.784 503.68 212.712 503.693 212.638 503.691ZM212.227 507.47V504.094H213.055V507.47H212.227Z" fill="white"/>
<path d="M216.287 507.471V505.714C216.298 505.585 216.283 505.454 216.242 505.331C216.201 505.208 216.136 505.094 216.05 504.995C215.874 504.845 215.649 504.763 215.416 504.763C215.183 504.763 214.958 504.845 214.782 504.995C214.697 505.094 214.632 505.208 214.591 505.331C214.55 505.455 214.535 505.585 214.546 505.714V507.471H213.717V505.714C213.712 505.461 213.754 505.21 213.839 504.972C213.913 504.772 214.031 504.59 214.184 504.439C214.336 504.293 214.519 504.182 214.72 504.114C214.944 504.039 215.18 504.002 215.416 504.005C215.653 504.002 215.888 504.038 216.113 504.111C216.314 504.177 216.497 504.287 216.649 504.432C216.803 504.584 216.92 504.767 216.993 504.968C217.079 505.208 217.121 505.46 217.116 505.713V507.47L216.287 507.471Z" fill="white"/>
<path d="M220.319 505.359C220.249 505.181 220.123 505.029 219.961 504.924C219.785 504.815 219.581 504.759 219.373 504.764C219.236 504.758 219.1 504.78 218.973 504.829C218.846 504.878 218.73 504.953 218.634 505.048C218.455 505.252 218.356 505.513 218.356 505.783C218.356 506.053 218.455 506.314 218.634 506.518C218.73 506.613 218.846 506.688 218.973 506.737C219.1 506.786 219.236 506.808 219.373 506.802C219.581 506.807 219.786 506.751 219.961 506.641C220.123 506.537 220.249 506.385 220.319 506.207H221.155C221.116 506.402 221.042 506.588 220.936 506.757C220.834 506.921 220.703 507.066 220.55 507.184C220.391 507.306 220.212 507.399 220.021 507.461C219.564 507.604 219.072 507.592 218.624 507.427C218.406 507.343 218.207 507.218 218.039 507.058C217.873 506.898 217.743 506.706 217.657 506.494C217.476 506.037 217.476 505.529 217.657 505.072C217.743 504.861 217.873 504.669 218.039 504.51C218.207 504.349 218.406 504.223 218.624 504.138C218.862 504.047 219.117 504.001 219.373 504.005C219.593 504.003 219.811 504.036 220.021 504.104C220.212 504.166 220.391 504.26 220.55 504.381C220.703 504.5 220.834 504.645 220.936 504.808C221.042 504.977 221.116 505.164 221.155 505.358L220.319 505.359Z" fill="white"/>
<path d="M222.29 506.07V506.085C222.336 506.297 222.456 506.488 222.628 506.624C222.813 506.762 223.04 506.832 223.272 506.823C223.424 506.836 223.577 506.814 223.718 506.758C223.859 506.702 223.986 506.614 224.086 506.502H224.971C224.846 506.819 224.622 507.09 224.33 507.274C224.014 507.471 223.646 507.571 223.272 507.561C223.016 507.565 222.762 507.519 222.524 507.428C222.306 507.344 222.107 507.219 221.938 507.059C221.772 506.899 221.642 506.707 221.556 506.495C221.374 506.038 221.374 505.53 221.556 505.073C221.642 504.861 221.772 504.67 221.938 504.511C222.107 504.351 222.306 504.225 222.524 504.141C223.005 503.964 223.536 503.964 224.017 504.141C224.235 504.224 224.433 504.349 224.598 504.511C224.761 504.671 224.889 504.863 224.975 505.073C225.066 505.299 225.112 505.54 225.11 505.784V506.071L222.29 506.07ZM223.272 504.745C223.053 504.737 222.836 504.799 222.656 504.922C222.49 505.043 222.369 505.214 222.311 505.408V505.422H224.234V505.408C224.175 505.212 224.052 505.041 223.884 504.922C223.704 504.8 223.49 504.738 223.272 504.745L223.272 504.745Z" fill="white"/>
<path d="M227.255 507.473V506.776L228.823 505.279C228.967 505.148 229.094 505 229.201 504.838C229.294 504.698 229.344 504.536 229.344 504.369C229.352 504.189 229.297 504.011 229.187 503.867C229.131 503.8 229.058 503.748 228.977 503.714C228.895 503.68 228.807 503.665 228.718 503.672C228.629 503.666 228.539 503.681 228.457 503.715C228.375 503.75 228.302 503.803 228.244 503.87C228.13 504.029 228.073 504.222 228.085 504.417V504.479H227.263V504.417C227.26 504.206 227.295 503.997 227.365 503.798C227.427 503.622 227.525 503.46 227.654 503.323C227.782 503.189 227.939 503.086 228.113 503.019C228.308 502.946 228.516 502.91 228.725 502.913C228.932 502.911 229.138 502.948 229.33 503.022C229.505 503.09 229.662 503.194 229.793 503.326C229.923 503.459 230.023 503.618 230.085 503.791C230.154 503.979 230.189 504.177 230.187 504.376C230.188 504.511 230.17 504.645 230.134 504.776C230.099 504.897 230.049 505.013 229.984 505.121C229.916 505.235 229.837 505.341 229.748 505.439C229.655 505.542 229.55 505.648 229.435 505.757L228.39 506.728V506.742H230.13V507.473H227.255Z" fill="white"/>
<path d="M233.821 505.959C233.825 506.184 233.784 506.408 233.703 506.619C233.631 506.809 233.517 506.981 233.37 507.123C233.224 507.266 233.047 507.376 232.853 507.446C232.431 507.596 231.967 507.596 231.544 507.446C231.35 507.376 231.174 507.266 231.027 507.123C230.881 506.981 230.767 506.809 230.695 506.619C230.613 506.408 230.573 506.184 230.576 505.959V504.51C230.573 504.284 230.613 504.06 230.695 503.85C230.768 503.66 230.882 503.487 231.029 503.344C231.176 503.203 231.352 503.093 231.544 503.022C231.967 502.872 232.43 502.872 232.853 503.022C233.046 503.093 233.222 503.203 233.369 503.344C233.515 503.487 233.629 503.66 233.703 503.85C233.784 504.06 233.825 504.284 233.821 504.51V505.959ZM232.992 504.51C233.006 504.285 232.932 504.063 232.784 503.891C232.624 503.748 232.415 503.668 232.199 503.668C231.982 503.668 231.773 503.748 231.613 503.891C231.466 504.063 231.391 504.285 231.405 504.51V505.959C231.391 506.184 231.466 506.405 231.613 506.578C231.773 506.721 231.982 506.8 232.199 506.8C232.415 506.8 232.624 506.721 232.784 506.578C232.932 506.405 233.006 506.184 232.992 505.959V504.51Z" fill="white"/>
<path d="M235.589 507.472V503.732H234.685V503.001H236.42V507.472H235.589Z" fill="white"/>
<path d="M237.742 507.473V506.776L239.309 505.279C239.454 505.148 239.581 505 239.689 504.838C239.781 504.698 239.83 504.536 239.831 504.369C239.839 504.189 239.784 504.011 239.674 503.867C239.617 503.8 239.545 503.748 239.463 503.714C239.382 503.68 239.293 503.665 239.205 503.672C239.115 503.666 239.026 503.681 238.944 503.715C238.861 503.75 238.788 503.803 238.731 503.87C238.616 504.029 238.56 504.222 238.572 504.417V504.479H237.749V504.417C237.745 504.206 237.78 503.997 237.85 503.798C237.912 503.622 238.01 503.46 238.139 503.323C238.267 503.189 238.424 503.086 238.598 503.019C238.794 502.946 239.001 502.91 239.211 502.913C239.418 502.911 239.624 502.948 239.817 503.022C239.991 503.09 240.149 503.194 240.279 503.327C240.41 503.459 240.51 503.618 240.572 503.791C240.641 503.979 240.675 504.177 240.674 504.376C240.675 504.511 240.658 504.646 240.621 504.776C240.586 504.897 240.536 505.013 240.472 505.121C240.403 505.234 240.324 505.341 240.235 505.439C240.142 505.542 240.037 505.648 239.921 505.757L238.876 506.728V506.742H240.618V507.473H237.742Z" fill="white"/>
<path d="M154.468 468.469C155.719 468.459 156.95 468.775 158.037 469.384C159.123 469.992 160.026 470.872 160.655 471.933C161.284 472.995 161.615 474.201 161.616 475.429C161.617 476.657 161.287 477.863 160.66 478.926C157.571 484.212 154.468 489.492 151.351 494.764C150.891 495.569 150.272 496.276 149.532 496.845C148.792 497.414 147.945 497.834 147.039 498.08C146.133 498.327 145.186 498.395 144.253 498.281C143.32 498.167 142.419 497.873 141.603 497.416C140.786 496.959 140.069 496.348 139.494 495.618C138.918 494.888 138.496 494.054 138.25 493.163C138.004 492.272 137.94 491.342 138.062 490.427C138.183 489.512 138.488 488.629 138.958 487.83C142.065 482.487 145.198 477.159 148.357 471.846C148.982 470.804 149.876 469.943 150.95 469.35C152.023 468.757 153.237 468.453 154.468 468.469Z" fill="white"/>
<path d="M136.366 489.839C135.146 487.766 133.885 485.62 132.62 483.475C131.732 481.966 130.834 480.464 129.956 478.949C127.564 474.824 129.865 469.6 134.57 468.628C137.56 468.011 140.109 468.909 141.907 471.367C143.651 473.753 143.767 476.353 142.343 478.926C140.935 481.472 139.377 483.936 137.946 486.471C137.336 487.553 136.885 488.72 136.366 489.839Z" fill="white"/>
</g>
<path d="M248 213L265.183 222.174" stroke="#7950FF" stroke-width="3"/>
<path d="M121.84 156.459L154.252 165.12L156.363 171.89L126.618 171.782L132.274 189.925L144.187 192.399L145.77 197.476L129.483 198.84L115.306 206.974L113.723 201.896L122.119 193.088L116.462 174.945L92.0499 191.941L89.9392 185.171L111.686 159.625L105.937 141.188C105.518 139.841 105.65 138.383 106.305 137.134C106.96 135.885 108.085 134.947 109.432 134.527C110.778 134.107 112.237 134.24 113.486 134.895C114.735 135.55 115.672 136.675 116.092 138.022L121.84 156.459Z" fill="white"/>
<g clip-path="url(#clip2_11063_74627)">
<path d="M269.5 634.417C259.604 634.417 251.583 626.395 251.583 616.5C251.583 606.605 259.604 598.583 269.5 598.583C279.395 598.583 287.416 606.605 287.416 616.5C287.416 626.395 279.395 634.417 269.5 634.417ZM280.886 623.581V623.392C280.886 621.741 280.886 620.986 279.718 620.318C279.342 620.105 278.956 619.911 278.562 619.736C277.904 619.436 277.469 619.241 276.881 618.381C276.811 618.279 276.742 618.176 276.674 618.073C276.055 617.132 275.609 616.455 273.911 616.724C270.569 617.254 270.322 617.842 270.175 618.834L270.152 618.998C269.935 620.449 269.896 620.936 270.501 621.572C272.768 623.95 274.126 625.664 274.538 626.668C274.739 627.157 275.255 628.638 274.9 630.104C277.075 629.238 279.01 627.864 280.545 626.096C280.742 625.426 280.886 624.591 280.886 623.581ZM269.5 601.867C265.348 601.867 261.598 603.598 258.936 606.375C259.253 606.596 259.529 606.906 259.719 607.332C260.084 608.151 260.084 608.995 260.084 609.742C260.084 610.329 260.084 610.888 260.273 611.292C260.531 611.843 261.645 612.08 262.629 612.284C262.982 612.359 263.344 612.435 263.673 612.526C264.58 612.777 265.282 613.592 265.843 614.246C266.076 614.517 266.422 614.916 266.595 615.016C266.685 614.952 266.973 614.638 267.115 614.124C267.226 613.73 267.194 613.382 267.034 613.193C266.031 612.01 266.087 609.735 266.397 608.894C266.884 607.57 268.407 607.669 269.521 607.74C269.937 607.767 270.327 607.794 270.621 607.757C271.736 607.617 272.08 605.92 272.322 605.589C272.845 604.872 274.446 603.792 275.439 603.125C273.569 602.294 271.546 601.865 269.5 601.867Z" fill="white"/>
</g>
<g clip-path="url(#clip3_11063_74627)">
<path d="M113.18 685.562L109.887 684.486L110.425 682.839L97.2505 678.534L96.7124 680.181L93.4188 679.105L93.9569 677.458L92.3101 676.92C90.4904 676.325 89.4981 674.37 90.0927 672.55L97.0879 651.142C97.6825 649.322 99.6379 648.33 101.458 648.924L106.398 650.539L107.474 647.245C107.771 646.336 108.75 645.839 109.659 646.136L119.54 649.365C120.449 649.662 120.946 650.641 120.649 651.55L119.572 654.843L124.513 656.458C126.333 657.052 127.325 659.008 126.73 660.827L119.735 682.236C119.14 684.055 117.185 685.048 115.365 684.453L113.718 683.915L113.18 685.562ZM107.539 658.202L104.246 657.126L99.4029 671.947L102.696 673.023L107.539 658.202ZM117.42 661.43L114.126 660.354L109.284 675.175L112.577 676.252L117.42 661.43ZM116.817 652.12L110.23 649.968L109.692 651.615L116.279 653.767L116.817 652.12Z" fill="white"/>
</g>
<g clip-path="url(#clip4_11063_74627)">
<path d="M282.12 251.518C278.514 251.059 275.219 249.245 272.903 246.444C270.587 243.642 269.425 240.064 269.652 236.437C269.88 232.809 271.48 229.404 274.128 226.915C276.776 224.425 280.272 223.036 283.907 223.032C287.546 223.029 291.049 224.414 293.703 226.904C296.356 229.395 297.96 232.803 298.188 236.435C298.416 240.067 297.251 243.649 294.929 246.452C292.608 249.254 289.305 251.066 285.694 251.518V255.225C292.747 255.39 298.206 256.517 298.206 257.885C298.206 259.365 291.803 260.566 283.907 260.566C276.011 260.566 269.608 259.365 269.608 257.885C269.608 256.517 275.067 255.39 282.12 255.225V251.518ZM283.907 240.905C284.855 240.905 285.764 240.528 286.435 239.858C287.105 239.188 287.482 238.278 287.482 237.33C287.482 236.382 287.105 235.473 286.435 234.803C285.764 234.132 284.855 233.756 283.907 233.756C282.959 233.756 282.05 234.132 281.379 234.803C280.709 235.473 280.332 236.382 280.332 237.33C280.332 238.278 280.709 239.188 281.379 239.858C282.05 240.528 282.959 240.905 283.907 240.905Z" fill="white"/>
</g>
<defs>
<clipPath id="clip0_11063_74627">
<rect width="124.75" height="51.9792" fill="white" transform="translate(127.162 387)"/>
</clipPath>
<clipPath id="clip1_11063_74627">
<rect width="111.772" height="40.5625" fill="white" transform="translate(129 468.438)"/>
</clipPath>
<clipPath id="clip2_11063_74627">
<rect width="43" height="43" fill="white" transform="translate(248 595)"/>
</clipPath>
<clipPath id="clip3_11063_74627">
<rect width="41.5795" height="41.5795" fill="white" transform="translate(95.9141 638) rotate(18.0948)"/>
</clipPath>
<clipPath id="clip4_11063_74627">
<rect width="42.8959" height="42.8959" fill="white" transform="translate(262.459 219.457)"/>
</clipPath>
</defs>
</svg>
